<svg id="Layer_2" data-name="Layer 2" xmlns="http://www.w3.org/2000/svg" viewBox="0 0 1000 800"><defs><style>.cls-1{fill:#1c2d34;}.cls-2{font-size:45px;font-family:Dutch801BT-Roman, Dutch801 Rm BT;letter-spacing:0.07em;}.cls-3{font-size:25px;font-family:MTD-Balerno-Bold, MTD Balerno;font-weight:700;}.cls-4{letter-spacing:-0.01em;}.cls-5{letter-spacing:-0.09em;}.cls-6{letter-spacing:-0.03em;}.cls-7{letter-spacing:0em;}</style></defs><path class="cls-1" d="M781.24,370.24c-164.66-149.5-297.53-76.32-297.53-76.32q1.76,0,3.48.09a77.23,77.23,0,0,1,57.67,13c97,41.57,140.2,168.16,140.2,168.16C723.65,394.9,781.24,370.24,781.24,370.24ZM730.42,343a249.55,249.55,0,0,1,19.12,17.69,1.24,1.24,0,0,1,.3,1.15L745.32,380a1.24,1.24,0,0,1-2.09.56q-9.62-9.93-19.07-18.56a1.23,1.23,0,0,1-.36-1.23l4.62-17.15A1.25,1.25,0,0,1,730.42,343ZM703.68,322.8c7.15,4.85,13.59,9.64,19.24,14.11a1.22,1.22,0,0,1,.42,1.29l-4.49,16.68a1.23,1.23,0,0,1-2,.6q-9.48-8.26-18.74-15.34a1.23,1.23,0,0,1-.45-1.3l4.14-15.33A1.24,1.24,0,0,1,703.68,322.8ZM676,306.11c7.06,3.74,13.71,7.65,19.92,11.59a1.24,1.24,0,0,1,.53,1.37l-4,14.76a1.23,1.23,0,0,1-1.92.68q-9.84-7.12-19.36-13a1.25,1.25,0,0,1-.54-1.37l3.57-13.25A1.25,1.25,0,0,1,676,306.11Zm-131.5-24.83a1.24,1.24,0,1,1,.24,2.46c-14.7.55-23,2.94-23,2.94A179.71,179.71,0,0,1,544.48,281.28Zm-5.16,12.53c-13-4.11-21-4.63-21-4.63a165,165,0,0,1,21.54,2.41,1.15,1.15,0,1,1-.56,2.22Zm13.3-11.71.34-1.26a1.24,1.24,0,0,1,1.06-.91,178.43,178.43,0,0,1,23.4-1.1,1.24,1.24,0,0,1,1.17,1.57l-1.11,4.15a1.25,1.25,0,0,1-1.38.9,184.43,184.43,0,0,0-22.31-1.79A1.24,1.24,0,0,1,552.62,282.1Zm15,22.64a1.14,1.14,0,0,1-1.48.36,169.41,169.41,0,0,0-18.87-8.53,1.15,1.15,0,0,1-.53-1.72l.69-1a1.14,1.14,0,0,1,1.21-.46,164.13,164.13,0,0,1,20.72,6.35,1.15,1.15,0,0,1,.53,1.73Zm16.23-19.41,1.4-5.19a1.24,1.24,0,0,1,1.28-.92,195.12,195.12,0,0,1,22.33,2.84,1.24,1.24,0,0,1,1,1.54l-2,7.52a1.24,1.24,0,0,1-1.55.86c-7.54-2.2-14.71-3.87-21.43-5.12A1.23,1.23,0,0,1,583.82,285.33Zm8.1,34.59a1.15,1.15,0,0,1-1.62.27A198.78,198.78,0,0,0,573.23,309a1.14,1.14,0,0,1-.36-1.64l2.84-4.08a1.15,1.15,0,0,1,1.4-.4,180.36,180.36,0,0,1,18.56,9.44A1.15,1.15,0,0,1,596,314ZM614,338.3a1.15,1.15,0,0,1-1.73.18c-5.24-4.94-10.43-9.39-15.53-13.4a1.15,1.15,0,0,1-.23-1.55L601.1,317a1.15,1.15,0,0,1,1.56-.32,204.55,204.55,0,0,1,16.75,12,1.15,1.15,0,0,1,.22,1.55Zm21.25-35.73c-7.13-3.12-14-5.75-20.68-8a1.23,1.23,0,0,1-.81-1.49l2.25-8.35a1.25,1.25,0,0,1,1.48-.89A219.31,219.31,0,0,1,638.94,290a1.24,1.24,0,0,1,.79,1.5L637,301.76A1.25,1.25,0,0,1,635.27,302.57Zm-1.16,57a1.15,1.15,0,0,1-1.82.08c-4.71-5.58-9.42-10.71-14.12-15.45a1.14,1.14,0,0,1-.12-1.45l6-8.62a1.15,1.15,0,0,1,1.69-.22c5.39,4.63,10.44,9.42,15.16,14.28a1.12,1.12,0,0,1,.12,1.45Zm29.25-42.76c-6.83-4-13.51-7.46-20-10.56a1.24,1.24,0,0,1-.66-1.44l3-11a1.24,1.24,0,0,1,1.64-.84c7.16,2.75,14.05,5.78,20.64,9a1.22,1.22,0,0,1,.64,1.43l-3.4,12.62A1.23,1.23,0,0,1,663.36,316.82Zm-11,66.74a1.15,1.15,0,0,1-1.89,0q-6.34-9.27-12.8-17.37a1.14,1.14,0,0,1,0-1.36l7.25-10.42a1.15,1.15,0,0,1,1.79-.12c5,5.46,9.55,10.94,13.73,16.31a1.16,1.16,0,0,1,0,1.36Zm16.41,26.57a1.14,1.14,0,0,1-1.94-.1q-5.67-10.17-11.53-19.21a1.15,1.15,0,0,1,0-1.27l8.39-12.07a1.15,1.15,0,0,1,1.86,0c4.72,6.45,8.83,12.63,12.36,18.29a1.15,1.15,0,0,1,0,1.26Zm15.2,30.17a1.15,1.15,0,0,1-2-.17q-5.26-11.65-10.81-22.11a1.16,1.16,0,0,1,.07-1.19l9.38-13.48a1.14,1.14,0,0,1,1.93.08,228.53,228.53,0,0,1,11.13,21.37,1.12,1.12,0,0,1-.1,1.09Z"/><path class="cls-1" d="M218.76,368.86c164.66,149.49,297.53,76.31,297.53,76.31q-1.75,0-3.48-.09a77.18,77.18,0,0,1-57.67-12.95C358.18,390.55,314.94,264,314.94,264,276.35,344.19,218.76,368.86,218.76,368.86Zm50.82,27.2a250.4,250.4,0,0,1-19.12-17.68,1.24,1.24,0,0,1-.3-1.15l4.52-18.16a1.23,1.23,0,0,1,2.09-.56q9.62,9.93,19.07,18.55a1.24,1.24,0,0,1,.36,1.23l-4.62,17.15A1.24,1.24,0,0,1,269.58,396.06Zm26.74,20.23c-7.15-4.84-13.59-9.63-19.24-14.1a1.23,1.23,0,0,1-.42-1.29l4.49-16.68a1.24,1.24,0,0,1,2-.61q9.48,8.26,18.74,15.34a1.24,1.24,0,0,1,.45,1.3l-4.14,15.34A1.24,1.24,0,0,1,296.32,416.29ZM324,433c-7.06-3.74-13.71-7.65-19.92-11.59a1.23,1.23,0,0,1-.53-1.37l4-14.76a1.24,1.24,0,0,1,1.92-.68q9.84,7.13,19.36,13a1.23,1.23,0,0,1,.54,1.37l-3.57,13.25A1.24,1.24,0,0,1,324,433Zm131.5,24.83a1.24,1.24,0,1,1-.24-2.46c14.7-.54,23-2.94,23-2.94A178,178,0,0,1,455.52,457.81Zm5.16-12.52c13,4.11,21,4.63,21,4.63a166.7,166.7,0,0,1-21.54-2.42,1.14,1.14,0,1,1,.56-2.21ZM447.38,457l-.34,1.26a1.23,1.23,0,0,1-1.06.91,178.43,178.43,0,0,1-23.4,1.1,1.23,1.23,0,0,1-1.17-1.56l1.11-4.15a1.26,1.26,0,0,1,1.38-.91,184.6,184.6,0,0,0,22.31,1.8A1.23,1.23,0,0,1,447.38,457Zm-15-22.64a1.15,1.15,0,0,1,1.48-.35,171.05,171.05,0,0,0,18.87,8.52,1.16,1.16,0,0,1,.53,1.73l-.69,1a1.16,1.16,0,0,1-1.21.46,165.81,165.81,0,0,1-20.72-6.36,1.14,1.14,0,0,1-.53-1.72Zm-16.23,19.42-1.4,5.19a1.23,1.23,0,0,1-1.28.91A192.92,192.92,0,0,1,391.17,457a1.26,1.26,0,0,1-1-1.55l2-7.52a1.24,1.24,0,0,1,1.55-.86,214.81,214.81,0,0,0,21.43,5.12A1.24,1.24,0,0,1,416.18,453.77Zm-8.1-34.6a1.15,1.15,0,0,1,1.62-.27,198.78,198.78,0,0,0,17.07,11.15,1.15,1.15,0,0,1,.36,1.65l-2.84,4.08a1.15,1.15,0,0,1-1.4.39,178.38,178.38,0,0,1-18.56-9.44,1.14,1.14,0,0,1-.36-1.64ZM386,400.79a1.15,1.15,0,0,1,1.73-.18c5.24,4.95,10.43,9.4,15.53,13.4a1.15,1.15,0,0,1,.23,1.55l-4.57,6.57a1.15,1.15,0,0,1-1.56.31,202.19,202.19,0,0,1-16.75-12,1.15,1.15,0,0,1-.22-1.55Zm-21.25,35.74c7.13,3.12,14,5.75,20.68,8a1.22,1.22,0,0,1,.81,1.49L384,454.34a1.25,1.25,0,0,1-1.48.88,219.31,219.31,0,0,1-21.43-6.13,1.23,1.23,0,0,1-.79-1.49L363,437.34A1.25,1.25,0,0,1,364.73,436.53Zm1.16-57a1.15,1.15,0,0,1,1.82-.09q7.07,8.37,14.12,15.45a1.15,1.15,0,0,1,.12,1.46L376,405a1.15,1.15,0,0,1-1.69.21c-5.39-4.63-10.44-9.42-15.16-14.27a1.14,1.14,0,0,1-.12-1.46Zm-29.25,42.76q10.25,5.93,20,10.56a1.23,1.23,0,0,1,.66,1.43l-3,11a1.24,1.24,0,0,1-1.64.83c-7.16-2.74-14-5.78-20.63-9a1.23,1.23,0,0,1-.65-1.44l3.4-12.62A1.23,1.23,0,0,1,336.64,422.28Zm11-66.75a1.15,1.15,0,0,1,1.89,0q6.35,9.29,12.8,17.37a1.14,1.14,0,0,1,0,1.36l-7.25,10.43a1.15,1.15,0,0,1-1.79.12c-5-5.46-9.55-10.95-13.73-16.32a1.16,1.16,0,0,1,0-1.36ZM331.27,329a1.15,1.15,0,0,1,1.94.11q5.67,10.15,11.53,19.21a1.15,1.15,0,0,1,0,1.27l-8.39,12.06a1.14,1.14,0,0,1-1.86,0c-4.72-6.45-8.83-12.63-12.36-18.29a1.14,1.14,0,0,1,0-1.25Zm-15.2-30.16a1.15,1.15,0,0,1,2,.17q5.26,11.64,10.81,22.11a1.14,1.14,0,0,1-.07,1.18l-9.38,13.49a1.15,1.15,0,0,1-1.93-.08,229.89,229.89,0,0,1-11.13-21.37,1.14,1.14,0,0,1,.1-1.1Z"/><path class="cls-1" d="M576,351.39A77.43,77.43,0,1,0,519,444.85,77.43,77.43,0,0,0,576,351.39ZM516.5,434.61a66.9,66.9,0,1,1,49.3-80.74A66.89,66.89,0,0,1,516.5,434.61Z"/><path class="cls-1" d="M532.89,317a61,61,0,1,0,20.26,83.81A61,61,0,0,0,532.89,317Zm4.64,29.24A12.94,12.94,0,1,1,528,361.85,12.95,12.95,0,0,1,537.53,346.23Zm-85.74-6.35a12.94,12.94,0,1,1,4.3,17.79A12.94,12.94,0,0,1,451.79,339.88Zm9,51.53a12.94,12.94,0,1,1,9.54-15.62A12.95,12.95,0,0,1,460.83,391.41ZM492.21,340a12.95,12.95,0,1,1,9.54-15.63A13,13,0,0,1,492.21,340Zm-22,76.2a12.94,12.94,0,1,1,17.79-4.3A12.94,12.94,0,0,1,470.24,416.21ZM494.42,364a8.36,8.36,0,1,1,2.78,11.49A8.36,8.36,0,0,1,494.42,364Zm20.21-20.44a12.94,12.94,0,1,1,17.79-4.3A12.94,12.94,0,0,1,514.63,343.52Zm-2.4,79.28a12.95,12.95,0,1,1,9.54-15.63A12.95,12.95,0,0,1,512.23,422.8Zm16.55-20.74a12.94,12.94,0,1,1,17.79-4.3A12.95,12.95,0,0,1,528.78,402.06Z"/><text class="cls-2" transform="translate(344.25 542.27)">CINEHOUSE</text><text class="cls-3" transform="translate(382.2 581.43)">Đ<tspan class="cls-4" x="18.5" y="0">ặ</tspan><tspan x="30.17" y="0">t </tspan><tspan class="cls-5" x="44.17" y="0">V</tspan><tspan x="59.87" y="0">é &amp; Trải </tspan><tspan class="cls-6" x="150.17" y="0">N</tspan><tspan class="cls-7" x="168.22" y="0">ghiệm</tspan></text></svg>